<svg width="800" height="553" viewBox="0 0 800 553" fill="none" xmlns="http://www.w3.org/2000/svg">
<g clip-path="url(#clip0_2401_31)">
<path d="M785.853 -0.000976562H13.6119C9.97173 0.0344089 6.49417 1.51223 3.94215 4.10831C1.39013 6.70439 -0.0280067 10.2067 -0.00108852 13.847V538.507C-0.0221484 542.143 1.3988 545.639 3.95039 548.229C6.50198 550.819 9.9762 552.293 13.6119 552.326H785.853C789.489 552.292 792.963 550.819 795.514 548.229C798.066 545.639 799.487 542.143 799.466 538.507V13.847C799.493 10.2071 798.075 6.70503 795.523 4.10901C792.972 1.51299 789.495 0.0349351 785.855 -0.000976562H785.853Z" fill="#090814"/>
<path d="M763.032 2.74316H14.4319C10.9291 2.74979 7.57206 4.14578 5.09735 6.6248C2.62264 9.10382 1.23246 12.4633 1.23193 15.9662V516.973C1.23696 520.472 2.62931 523.827 5.1037 526.301C7.57809 528.776 10.9326 530.168 14.4319 530.173H763.032C766.531 530.168 769.886 528.776 772.36 526.301C774.835 523.827 776.227 520.472 776.232 516.973V15.9672C776.232 12.4653 774.842 9.10653 772.369 6.62762C769.896 4.14872 766.54 2.7521 763.038 2.74416L763.032 2.74316Z" fill="#2A2A2A"/>
<path d="M179.716 140.171C203.027 140.171 221.925 121.273 221.925 97.9619C221.925 74.6505 203.027 55.7529 179.716 55.7529C156.404 55.7529 137.507 74.6505 137.507 97.9619C137.507 121.273 156.404 140.171 179.716 140.171Z" fill="#C78CFF"/>
<path d="M178.436 120.474V116.095C175.242 116.051 172.153 114.948 169.654 112.958C168.558 111.991 167.683 110.801 167.088 109.467C166.492 108.134 166.19 106.687 166.202 105.227H172.436C172.459 105.958 172.637 106.677 172.96 107.334C173.282 107.991 173.741 108.572 174.306 109.038C175.501 109.969 176.939 110.537 178.448 110.675V100.211L176.548 99.7108C173.999 99.1584 171.627 97.9795 169.648 96.2808C168.827 95.5108 168.181 94.5732 167.755 93.5318C167.328 92.4904 167.13 91.3693 167.175 90.2448C167.141 88.4322 167.647 86.6505 168.629 85.1268C169.634 83.6127 171.011 82.3824 172.629 81.5538C174.435 80.6234 176.41 80.0679 178.436 79.9208V75.4468H181.276V79.8978C183.357 79.9846 185.395 80.5173 187.253 81.4598C188.864 82.283 190.238 83.5056 191.242 85.0108C192.208 86.4905 192.734 88.2146 192.757 89.9818H186.63C186.581 89.3668 186.412 88.7675 186.131 88.2183C185.85 87.6691 185.463 87.1809 184.993 86.7818C183.929 85.9282 182.635 85.4094 181.276 85.2908V95.1618L182.862 95.5618C184.587 95.9839 186.258 96.5994 187.845 97.3968C189.374 98.1465 190.706 99.2466 191.73 100.608C192.775 102.094 193.302 103.882 193.23 105.698C193.266 107.057 193.004 108.408 192.462 109.656C191.92 110.903 191.111 112.016 190.093 112.918C188.002 114.811 185.062 115.868 181.275 116.09V120.469L178.436 120.474ZM181.276 110.654C182.774 110.528 184.198 109.95 185.36 108.997C185.852 108.592 186.247 108.082 186.515 107.504C186.784 106.927 186.919 106.296 186.911 105.659C186.937 105.072 186.808 104.489 186.538 103.968C186.268 103.447 185.866 103.005 185.372 102.688C184.109 101.9 182.727 101.32 181.28 100.972L181.276 110.654ZM178.436 94.4348V85.3218C177.106 85.4529 175.851 85.9994 174.85 86.8838C174.437 87.2617 174.108 87.7228 173.886 88.2368C173.664 88.7507 173.552 89.3059 173.56 89.8658C173.532 90.4483 173.656 91.028 173.919 91.5486C174.182 92.0692 174.575 92.513 175.06 92.8368C176.096 93.5403 177.235 94.0799 178.436 94.4368V94.4348Z" fill="white"/>
<path d="M555.038 75.1631H259.038C255.724 75.1631 253.038 77.8494 253.038 81.1631V115.163C253.038 118.477 255.724 121.163 259.038 121.163H555.038C558.352 121.163 561.038 118.477 561.038 115.163V81.1631C561.038 77.8494 558.352 75.1631 555.038 75.1631Z" fill="#676767"/>
<path d="M638.747 95.4531L620.769 73.5911C620.281 72.9982 619.67 72.5183 618.979 72.1847C618.287 71.851 617.532 71.6717 616.764 71.6589C615.996 71.6462 615.235 71.8004 614.533 72.1109C613.83 72.4213 613.204 72.8807 612.697 73.4571L593.471 95.3151C592.561 96.3731 592.106 97.7472 592.203 99.1391C592.3 100.531 592.942 101.828 593.99 102.75C595.037 103.671 596.406 104.143 597.799 104.061C599.192 103.98 600.497 103.352 601.43 102.315L611.377 91.0041V119.367C611.377 120.773 611.935 122.121 612.929 123.115C613.923 124.109 615.271 124.667 616.677 124.667C618.083 124.667 619.431 124.109 620.425 123.115C621.419 122.121 621.977 120.773 621.977 119.367V91.7441L630.563 102.185C631.464 103.245 632.745 103.908 634.13 104.032C635.515 104.155 636.894 103.73 637.968 102.846C639.042 101.963 639.726 100.693 639.872 99.3096C640.018 97.9265 639.615 96.5415 638.749 95.4531H638.747Z" fill="#C78CFF"/>
<path d="M404.756 266.155H146.606C144.193 266.152 141.88 265.193 140.174 263.487C138.468 261.781 137.509 259.468 137.506 257.055V229.277C137.509 226.865 138.468 224.552 140.174 222.846C141.88 221.14 144.193 220.18 146.606 220.177H404.756C407.168 220.18 409.481 221.14 411.187 222.846C412.893 224.552 413.853 226.865 413.856 229.277V257.056C413.853 259.469 412.893 261.782 411.187 263.488C409.481 265.194 407.168 266.153 404.756 266.156V266.155ZM146.606 221.129C144.447 221.132 142.378 221.99 140.851 223.517C139.325 225.043 138.466 227.113 138.464 229.271V257.05C138.466 259.209 139.325 261.278 140.851 262.805C142.378 264.331 144.447 265.19 146.606 265.192H404.756C406.915 265.19 408.984 264.331 410.51 262.805C412.037 261.278 412.895 259.209 412.898 257.05V229.277C412.896 227.118 412.038 225.048 410.511 223.521C408.985 221.994 406.915 221.136 404.756 221.133L146.606 221.129Z" fill="#CCCCCC"/>
<path d="M181.489 259.005C178.356 259.005 175.294 258.076 172.689 256.336C170.084 254.595 168.054 252.122 166.855 249.227C165.657 246.333 165.343 243.149 165.954 240.076C166.565 237.004 168.074 234.181 170.289 231.966C172.504 229.751 175.326 228.243 178.399 227.631C181.471 227.02 184.656 227.334 187.55 228.533C190.444 229.732 192.918 231.762 194.658 234.366C196.399 236.971 197.328 240.034 197.328 243.166C197.328 247.367 195.659 251.396 192.689 254.366C189.718 257.336 185.69 259.005 181.489 259.005Z" fill="#C78CFF"/>
<path d="M381.372 256.098H212.306C211.798 256.107 211.293 256.013 210.821 255.825C210.348 255.636 209.919 255.355 209.556 254.998C209.194 254.642 208.906 254.216 208.71 253.748C208.513 253.279 208.412 252.775 208.412 252.267C208.412 251.758 208.513 251.255 208.71 250.786C208.906 250.317 209.194 249.892 209.556 249.535C209.919 249.179 210.348 248.898 210.821 248.709C211.293 248.52 211.798 248.427 212.306 248.435H381.372C382.388 248.435 383.363 248.839 384.081 249.558C384.8 250.276 385.204 251.251 385.204 252.267C385.204 253.284 384.8 254.258 384.081 254.977C383.363 255.696 382.388 256.099 381.372 256.099V256.098Z" fill="#C78CFF"/>
<path d="M326.29 239.814H212.301C211.285 239.814 210.31 239.41 209.591 238.692C208.873 237.973 208.469 236.998 208.469 235.982C208.469 234.966 208.873 233.991 209.591 233.273C210.31 232.554 211.285 232.15 212.301 232.15H326.29C326.798 232.142 327.303 232.235 327.775 232.424C328.247 232.613 328.677 232.894 329.039 233.25C329.402 233.607 329.69 234.032 329.886 234.501C330.083 234.97 330.184 235.473 330.184 235.982C330.184 236.49 330.083 236.993 329.886 237.462C329.69 237.931 329.402 238.357 329.039 238.713C328.677 239.07 328.247 239.351 327.775 239.539C327.303 239.728 326.798 239.822 326.29 239.814Z" fill="#C78CFF"/>
<path d="M404.756 344.141H146.606C144.193 344.138 141.88 343.178 140.174 341.473C138.468 339.767 137.509 337.454 137.506 335.041V307.263C137.509 304.851 138.468 302.538 140.174 300.832C141.88 299.126 144.193 298.166 146.606 298.163H404.756C407.168 298.166 409.481 299.126 411.187 300.832C412.893 302.538 413.853 304.851 413.856 307.263V335.042C413.853 337.455 412.893 339.768 411.187 341.474C409.481 343.179 407.168 344.139 404.756 344.142V344.141ZM146.606 299.115C144.447 299.117 142.378 299.976 140.851 301.502C139.325 303.029 138.466 305.098 138.464 307.257V335.036C138.466 337.195 139.325 339.264 140.851 340.791C142.378 342.317 144.447 343.176 146.606 343.178H404.756C406.915 343.176 408.984 342.317 410.51 340.791C412.037 339.264 412.895 337.195 412.898 335.036V307.263C412.896 305.104 412.038 303.034 410.511 301.507C408.985 299.98 406.915 299.121 404.756 299.119L146.606 299.115Z" fill="#CCCCCC"/>
<path d="M181.489 336.991C178.356 336.991 175.294 336.062 172.689 334.322C170.084 332.581 168.054 330.108 166.855 327.213C165.657 324.319 165.343 321.134 165.954 318.062C166.565 314.989 168.074 312.167 170.289 309.952C172.504 307.737 175.326 306.228 178.399 305.617C181.471 305.006 184.656 305.32 187.55 306.519C190.444 307.717 192.918 309.748 194.658 312.352C196.399 314.957 197.328 318.019 197.328 321.152C197.328 325.353 195.659 329.381 192.689 332.352C189.718 335.322 185.69 336.991 181.489 336.991Z" fill="#676767"/>
<path d="M381.372 334.084H212.306C211.798 334.092 211.293 333.999 210.821 333.81C210.348 333.622 209.919 333.341 209.556 332.984C209.194 332.627 208.906 332.202 208.71 331.733C208.513 331.264 208.412 330.761 208.412 330.253C208.412 329.744 208.513 329.241 208.71 328.772C208.906 328.303 209.194 327.878 209.556 327.521C209.919 327.165 210.348 326.884 210.821 326.695C211.293 326.506 211.798 326.413 212.306 326.421H381.372C382.388 326.421 383.363 326.825 384.081 327.544C384.8 328.262 385.204 329.237 385.204 330.253C385.204 331.269 384.8 332.244 384.081 332.963C383.363 333.681 382.388 334.085 381.372 334.085V334.084Z" fill="#676767"/>
<path d="M326.29 317.8H212.301C211.285 317.8 210.31 317.396 209.591 316.678C208.873 315.959 208.469 314.984 208.469 313.968C208.469 312.952 208.873 311.977 209.591 311.258C210.31 310.54 211.285 310.136 212.301 310.136H326.29C326.798 310.128 327.303 310.221 327.775 310.41C328.247 310.599 328.677 310.879 329.039 311.236C329.402 311.593 329.69 312.018 329.886 312.487C330.083 312.956 330.184 313.459 330.184 313.968C330.184 314.476 330.083 314.979 329.886 315.448C329.69 315.917 329.402 316.342 329.039 316.699C328.677 317.056 328.247 317.336 327.775 317.525C327.303 317.714 326.798 317.808 326.29 317.8Z" fill="#676767"/>
<path d="M404.756 422.127H146.606C144.193 422.124 141.88 421.164 140.174 419.458C138.468 417.752 137.509 415.439 137.506 413.027V385.249C137.509 382.836 138.468 380.523 140.174 378.817C141.88 377.112 144.193 376.152 146.606 376.149H404.756C407.168 376.152 409.481 377.112 411.187 378.817C412.893 380.523 413.853 382.836 413.856 385.249V413.028C413.853 415.441 412.893 417.753 411.187 419.459C409.481 421.165 407.168 422.125 404.756 422.128V422.127ZM146.606 377.101C144.447 377.103 142.378 377.962 140.851 379.488C139.325 381.015 138.466 383.084 138.464 385.243V413.022C138.466 415.181 139.325 417.25 140.851 418.777C142.378 420.303 144.447 421.162 146.606 421.164H404.756C406.915 421.162 408.984 420.303 410.51 418.777C412.037 417.25 412.895 415.181 412.898 413.022V385.249C412.896 383.09 412.038 381.02 410.511 379.493C408.985 377.966 406.915 377.107 404.756 377.105L146.606 377.101Z" fill="#CCCCCC"/>
<path d="M181.489 414.977C178.356 414.977 175.294 414.048 172.689 412.307C170.084 410.567 168.054 408.093 166.855 405.199C165.657 402.305 165.343 399.12 165.954 396.048C166.565 392.975 168.074 390.153 170.289 387.938C172.504 385.723 175.326 384.214 178.399 383.603C181.471 382.992 184.656 383.306 187.55 384.505C190.444 385.703 192.918 387.733 194.658 390.338C196.399 392.943 197.328 396.005 197.328 399.138C197.328 403.339 195.659 407.367 192.689 410.338C189.718 413.308 185.69 414.977 181.489 414.977Z" fill="#676767"/>
<path d="M381.372 412.07H212.306C211.798 412.078 211.293 411.985 210.821 411.796C210.348 411.607 209.919 411.327 209.556 410.97C209.194 410.613 208.906 410.188 208.71 409.719C208.513 409.25 208.412 408.747 208.412 408.239C208.412 407.73 208.513 407.227 208.71 406.758C208.906 406.289 209.194 405.864 209.556 405.507C209.919 405.15 210.348 404.87 210.821 404.681C211.293 404.492 211.798 404.399 212.306 404.407H381.372C382.388 404.407 383.363 404.811 384.081 405.529C384.8 406.248 385.204 407.223 385.204 408.239C385.204 409.255 384.8 410.23 384.081 410.949C383.363 411.667 382.388 412.071 381.372 412.071V412.07Z" fill="#676767"/>
<path d="M326.29 395.786H212.301C211.285 395.786 210.31 395.382 209.591 394.663C208.873 393.945 208.469 392.97 208.469 391.954C208.469 390.938 208.873 389.963 209.591 389.244C210.31 388.526 211.285 388.122 212.301 388.122H326.29C326.798 388.114 327.303 388.207 327.775 388.396C328.247 388.584 328.677 388.865 329.039 389.222C329.402 389.579 329.69 390.004 329.886 390.473C330.083 390.942 330.184 391.445 330.184 391.953C330.184 392.462 330.083 392.965 329.886 393.434C329.69 393.903 329.402 394.328 329.039 394.685C328.677 395.041 328.247 395.322 327.775 395.511C327.303 395.7 326.798 395.794 326.29 395.786Z" fill="#676767"/>
<path d="M496.598 422.127H477.222C476.697 422.127 476.194 421.918 475.823 421.547C475.452 421.176 475.243 420.673 475.242 420.148V356.288C475.243 355.763 475.452 355.26 475.823 354.889C476.194 354.518 476.697 354.31 477.222 354.309H496.603C497.128 354.31 497.631 354.518 498.002 354.889C498.373 355.26 498.582 355.763 498.583 356.288V420.148C498.583 420.408 498.531 420.666 498.431 420.906C498.331 421.147 498.185 421.365 498 421.549C497.816 421.732 497.597 421.878 497.357 421.977C497.116 422.077 496.858 422.127 496.598 422.127Z" fill="#C78CFF"/>
<path d="M531.942 422.127H512.561C512.036 422.126 511.533 421.918 511.162 421.547C510.791 421.176 510.582 420.673 510.581 420.148V330.948C510.582 330.423 510.791 329.92 511.162 329.549C511.533 329.178 512.036 328.97 512.561 328.969H531.942C532.467 328.97 532.97 329.178 533.341 329.549C533.712 329.92 533.921 330.423 533.922 330.948V420.148C533.921 420.673 533.712 421.176 533.341 421.547C532.97 421.918 532.467 422.126 531.942 422.127Z" fill="#C78CFF"/>
<path d="M567.286 422.127H547.905C547.38 422.127 546.877 421.918 546.506 421.547C546.135 421.176 545.926 420.673 545.925 420.148V356.288C545.926 355.763 546.135 355.26 546.506 354.889C546.877 354.518 547.38 354.31 547.905 354.309H567.286C567.811 354.31 568.314 354.518 568.685 354.889C569.056 355.26 569.265 355.763 569.266 356.288V420.148C569.265 420.673 569.056 421.176 568.685 421.547C568.314 421.918 567.811 422.127 567.286 422.127Z" fill="#C78CFF"/>
<path d="M602.631 422.128H583.25C582.737 422.139 582.24 421.947 581.869 421.592C581.498 421.238 581.282 420.751 581.27 420.238V320.859C581.283 320.346 581.498 319.859 581.87 319.505C582.241 319.151 582.737 318.958 583.25 318.969H602.631C603.144 318.958 603.64 319.15 604.012 319.505C604.383 319.859 604.598 320.346 604.611 320.859V420.242C604.597 420.754 604.381 421.24 604.01 421.594C603.639 421.947 603.143 422.139 602.631 422.128Z" fill="#C78CFF"/>
<path d="M637.974 422.127H618.593C618.068 422.126 617.565 421.918 617.194 421.547C616.823 421.176 616.614 420.673 616.613 420.148V302.939C616.614 302.414 616.823 301.911 617.194 301.54C617.565 301.169 618.068 300.96 618.593 300.96H637.974C638.499 300.96 639.002 301.169 639.373 301.54C639.744 301.911 639.953 302.414 639.954 302.939V420.148C639.953 420.673 639.744 421.176 639.373 421.547C639.002 421.918 638.499 422.126 637.974 422.127Z" fill="#C78CFF"/>
</g>
<defs>
<clipPath id="clip0_2401_31">
<rect width="799.465" height="552.326" fill="white"/>
</clipPath>
</defs>
</svg>
