<svg width="35" height="35" viewBox="0 0 35 35" fill="none" xmlns="http://www.w3.org/2000/svg">
<rect width="35" height="35" rx="17.5" fill="#C78CFF"/>
<path d="M23.7196 9.67964C23.4595 9.67417 23.1876 9.68979 22.9149 9.73042C19.4665 8.17104 18.3517 5.89136 16.8118 5.89136C15.4798 5.89136 15.5462 8.35151 20.6274 10.9859C20.6181 10.9976 20.6095 11.0093 20.6001 11.0218C20.2126 11.5531 15.1423 8.60229 13.5806 8.60542C11.4774 8.61011 14.5626 13.5804 19.5876 12.8C20.0642 12.7257 19.3517 13.5101 19.4103 13.9562C19.4282 14.0937 19.461 14.2257 19.5064 14.3515C14.604 14.2234 11.547 15.1187 9.76963 16.5187C8.50713 15.8132 8.46338 13.3242 7.1626 13.9679C5.77979 14.6523 6.63213 18.3289 7.81182 19.5476C7.01338 23.0101 9.56729 27.1429 11.5978 28.4H27.6204C28.4892 27.7835 28.0009 27.2984 27.6204 26.8398C27.1501 26.2734 25.6978 25.9031 24.5009 26.0601C22.7587 25.3507 28.754 21.3937 24.522 16.7242C25.3196 16.7695 26.2298 16.7062 27.022 16.457C27.0399 16.4695 27.0587 16.4828 27.0774 16.4953L27.1126 16.4281C27.8399 16.1835 28.4587 15.775 28.7821 15.1406C29.1806 14.3609 26.2017 9.73276 23.7204 9.68042L23.7196 9.67964ZM24.4978 13.5726C24.0673 13.5726 23.7181 13.2234 23.7181 12.7929C23.7181 12.3625 24.0673 12.0132 24.4978 12.0132C24.9282 12.0132 25.2774 12.3625 25.2774 12.7929C25.2774 13.2234 24.9282 13.5726 24.4978 13.5726Z" fill="white"/>
</svg>
